<svg width="420" height="420" viewBox="0 0 420 420" fill="none" xmlns="http://www.w3.org/2000/svg">
  <circle cx="210" cy="210" r="196" fill="#F8FBFF"/>
  <circle cx="210" cy="210" r="110" fill="#20BFE3"/>
  <path d="M210 24C245 24 279 34 309 52L262 135C247 126 229 122 210 122V24Z" fill="#F15A47"/>
  <path d="M396 210C396 245 386 279 368 309L285 262C294 247 298 229 298 210H396Z" fill="#F15A47"/>
  <path d="M210 396C175 396 141 386 111 368L158 285C173 294 191 298 210 298V396Z" fill="#F15A47"/>
  <path d="M24 210C24 175 34 141 52 111L135 158C126 173 122 191 122 210H24Z" fill="#F15A47"/>
  <circle cx="210" cy="210" r="196" stroke="#FFFFFF" stroke-width="18"/>
  <circle cx="210" cy="210" r="110" stroke="#C8F4FF" stroke-width="8"/>
</svg>
